<svg id="svg" version="1.1" xmlns="http://www.w3.org/2000/svg" xmlns:xlink="http://www.w3.org/1999/xlink" width="400" height="400" viewBox="0 0 400 400"><g id="svgg"><path id="path0" d="M255.507 114.290 C 256.226 114.379,257.306 114.377,257.907 114.286 C 258.508 114.195,257.920 114.122,256.600 114.124 C 255.280 114.126,254.788 114.201,255.507 114.290 M166.992 126.100 L 163.400 129.800 167.100 126.208 C 170.536 122.872,170.982 122.400,170.692 122.400 C 170.632 122.400,168.967 124.065,166.992 126.100 M272.575 233.700 L 271.400 235.000 272.700 233.825 C 273.415 233.179,274.000 232.594,274.000 232.525 C 274.000 232.216,273.670 232.488,272.575 233.700 M108.854 233.651 C 108.824 234.230,109.114 234.948,109.500 235.251 C 110.109 235.729,110.140 235.722,109.738 235.200 C 109.484 234.870,109.194 234.150,109.093 233.600 L 108.909 232.600 108.854 233.651 M115.000 240.800 C 115.859 241.680,116.652 242.400,116.762 242.400 C 116.872 242.400,116.259 241.680,115.400 240.800 C 114.541 239.920,113.748 239.200,113.638 239.200 C 113.528 239.200,114.141 239.920,115.000 240.800 M97.800 242.768 C 80.077 247.361,62.339 265.160,53.315 287.405 C 51.269 292.451,49.776 296.823,48.402 301.800 C 47.916 303.560,47.078 306.350,46.540 308.000 C 42.886 319.209,44.753 320.789,57.563 317.328 C 65.473 315.191,65.886 315.751,63.797 325.791 C 61.379 337.410,62.799 338.988,72.097 335.017 C 83.056 330.335,84.675 332.066,81.619 345.200 C 79.254 355.364,79.138 355.099,85.417 353.816 C 95.845 351.686,104.424 349.096,114.200 345.126 C 132.369 337.747,146.139 325.422,154.113 309.400 C 160.113 297.344,158.870 293.257,145.622 281.475 C 141.059 277.416,136.309 272.821,133.548 269.792 C 132.750 268.917,130.633 266.876,128.845 265.258 C 127.058 263.640,124.056 260.445,122.175 258.158 C 120.294 255.871,118.225 253.420,117.578 252.711 C 116.930 252.002,116.400 251.288,116.400 251.125 C 116.400 250.963,114.888 249.507,113.040 247.892 C 106.992 242.604,103.267 241.352,97.800 242.768 M125.200 250.925 C 125.200 250.994,125.785 251.579,126.500 252.225 L 127.800 253.400 126.625 252.100 C 125.530 250.888,125.200 250.616,125.200 250.925 M157.200 291.077 C 157.200 291.296,157.560 291.802,158.000 292.200 C 158.440 292.598,158.800 292.834,158.800 292.723 C 158.800 292.613,158.440 292.107,158.000 291.600 C 157.560 291.093,157.200 290.857,157.200 291.077 M42.865 319.690 C 43.276 321.522,43.859 322.138,44.800 321.734 C 45.130 321.593,46.210 321.349,47.200 321.192 C 48.441 320.996,48.649 320.890,47.871 320.853 C 46.652 320.796,43.200 318.955,43.200 318.362 C 43.200 318.163,43.039 318.000,42.843 318.000 C 42.636 318.000,42.645 318.714,42.865 319.690 M60.412 332.000 C 60.147 332.600,59.966 337.011,60.173 337.835 C 60.363 338.592,60.679 338.800,61.641 338.800 C 62.315 338.800,62.797 338.665,62.712 338.500 C 61.708 336.548,61.013 334.714,60.782 333.400 C 60.627 332.520,60.460 331.890,60.412 332.000 M75.100 335.076 C 74.033 335.355,74.266 336.002,75.400 335.908 C 75.950 335.863,76.400 335.698,76.400 335.542 C 76.400 335.386,76.715 335.176,77.100 335.076 C 77.541 334.961,77.429 334.893,76.800 334.893 C 76.250 334.893,75.485 334.975,75.100 335.076 M78.400 356.455 C 78.400 356.645,78.850 356.800,79.400 356.800 C 79.950 356.800,80.400 356.731,80.400 356.647 C 80.400 356.562,79.950 356.407,79.400 356.302 C 78.850 356.197,78.400 356.266,78.400 356.455 " stroke="none" fill="#28a39b" fill-rule="evenodd"></path><path id="path1" d="M343.851 44.841 C 342.559 45.029,341.299 45.347,341.051 45.547 C 340.803 45.747,339.655 46.037,338.500 46.193 C 337.345 46.348,336.400 46.608,336.400 46.771 C 336.400 47.048,335.473 47.283,329.700 48.475 C 328.435 48.736,327.310 49.074,327.200 49.226 C 327.090 49.379,326.055 49.632,324.900 49.789 C 323.746 49.946,322.711 50.220,322.601 50.398 C 322.491 50.576,321.321 50.847,320.001 51.000 C 318.681 51.153,317.691 51.423,317.800 51.600 C 317.909 51.777,316.919 52.047,315.600 52.200 C 314.281 52.353,313.278 52.603,313.372 52.755 C 313.467 52.908,312.073 53.264,310.277 53.546 C 308.480 53.829,306.918 54.205,306.805 54.382 C 306.692 54.559,305.655 54.832,304.500 54.989 C 303.345 55.146,302.400 55.421,302.400 55.600 C 302.400 55.779,301.500 56.049,300.400 56.200 C 299.301 56.351,298.313 56.617,298.205 56.791 C 298.098 56.965,297.198 57.229,296.205 57.378 C 295.212 57.527,294.400 57.795,294.400 57.973 C 294.400 58.151,293.500 58.416,292.400 58.562 C 291.300 58.708,290.400 58.988,290.400 59.185 C 290.400 59.382,289.410 59.666,288.200 59.817 C 286.990 59.968,286.000 60.223,286.000 60.382 C 286.000 60.542,284.965 60.901,283.700 61.181 C 282.435 61.460,281.220 61.826,281.000 61.994 C 280.780 62.162,279.745 62.423,278.700 62.574 C 277.655 62.725,276.800 62.998,276.800 63.179 C 276.800 63.463,275.388 63.871,273.700 64.073 C 273.425 64.106,273.200 64.268,273.200 64.432 C 273.200 64.596,272.481 64.851,271.602 65.000 C 270.723 65.148,269.903 65.434,269.778 65.635 C 269.654 65.836,269.248 66.001,268.876 66.002 C 268.504 66.004,267.684 66.274,267.054 66.602 C 266.424 66.931,265.614 67.206,265.254 67.214 C 264.894 67.221,263.880 67.575,263.000 68.000 C 262.120 68.425,261.085 68.779,260.700 68.786 C 260.315 68.794,260.000 68.943,260.000 69.117 C 260.000 69.292,258.920 69.675,257.600 69.967 C 256.280 70.260,255.200 70.657,255.200 70.850 C 255.200 71.042,254.885 71.201,254.500 71.202 C 254.115 71.204,253.317 71.457,252.727 71.765 C 252.137 72.073,251.102 72.446,250.427 72.594 C 249.752 72.742,249.200 73.009,249.200 73.187 C 249.200 73.365,248.570 73.629,247.800 73.774 C 247.030 73.918,246.400 74.185,246.400 74.367 C 246.400 74.549,245.680 74.813,244.800 74.954 C 243.920 75.094,243.200 75.387,243.200 75.605 C 243.200 75.822,242.975 76.006,242.700 76.014 C 242.425 76.021,241.480 76.375,240.600 76.800 C 239.720 77.225,238.839 77.579,238.642 77.586 C 238.263 77.601,232.933 80.040,231.138 81.020 C 230.554 81.339,229.789 81.600,229.438 81.600 C 229.087 81.600,228.800 81.760,228.800 81.957 C 228.800 82.153,228.307 82.437,227.704 82.588 C 227.101 82.740,226.516 82.984,226.404 83.132 C 226.292 83.280,224.760 84.088,223.000 84.928 C 221.240 85.768,219.350 86.712,218.800 87.027 C 218.250 87.341,216.990 88.004,216.000 88.499 C 215.010 88.994,214.110 89.489,214.000 89.600 C 213.890 89.710,213.093 90.160,212.229 90.600 C 211.366 91.040,210.466 91.582,210.229 91.805 C 209.993 92.027,209.350 92.429,208.800 92.698 C 208.250 92.966,206.720 93.819,205.400 94.592 C 204.080 95.366,202.595 96.208,202.100 96.463 C 201.605 96.719,201.200 97.080,201.200 97.264 C 201.200 97.449,200.958 97.600,200.661 97.600 C 200.365 97.600,199.707 97.960,199.200 98.400 C 198.693 98.840,198.112 99.200,197.910 99.200 C 197.708 99.200,197.308 99.425,197.020 99.700 C 196.733 99.975,196.095 100.470,195.603 100.800 C 195.110 101.130,194.323 101.690,193.854 102.045 C 193.384 102.400,192.595 102.817,192.100 102.972 C 191.605 103.127,191.200 103.402,191.200 103.583 C 191.200 103.764,190.122 104.607,188.803 105.456 C 187.485 106.305,186.405 107.135,186.403 107.300 C 186.402 107.465,186.139 107.600,185.820 107.600 C 185.501 107.600,185.096 107.836,184.920 108.123 C 184.744 108.411,183.700 109.314,182.600 110.128 C 179.332 112.549,178.855 112.920,176.680 114.739 C 169.054 121.113,165.386 124.748,154.018 137.200 C 153.315 137.970,152.183 139.365,151.502 140.300 C 150.821 141.235,150.127 142.000,149.959 142.000 C 149.791 142.000,149.539 142.363,149.398 142.806 C 149.257 143.249,148.975 143.508,148.771 143.382 C 148.567 143.256,148.395 143.388,148.389 143.676 C 148.383 143.964,147.847 144.721,147.197 145.358 C 146.548 145.995,145.911 146.850,145.782 147.258 C 145.652 147.666,145.402 148.000,145.226 148.000 C 145.050 148.000,144.405 148.765,143.792 149.700 C 143.180 150.635,142.436 151.544,142.139 151.720 C 141.843 151.896,141.600 152.282,141.600 152.577 C 141.600 152.873,141.330 153.218,141.000 153.345 C 140.670 153.471,140.400 153.851,140.400 154.187 C 140.400 154.524,140.265 154.801,140.100 154.803 C 139.935 154.804,139.352 155.479,138.804 156.303 C 138.256 157.126,137.577 157.946,137.295 158.125 C 137.014 158.303,136.888 158.619,137.017 158.827 C 137.146 159.035,136.986 159.307,136.662 159.432 C 136.338 159.556,135.855 160.185,135.588 160.829 C 135.321 161.473,134.945 162.000,134.751 162.000 C 134.558 162.000,134.400 162.276,134.400 162.613 C 134.400 162.949,134.130 163.329,133.800 163.455 C 133.470 163.582,133.200 163.905,133.200 164.172 C 133.200 164.440,132.570 165.545,131.800 166.628 C 131.030 167.711,130.400 168.823,130.400 169.099 C 130.400 169.374,130.253 169.600,130.074 169.600 C 129.895 169.600,129.444 170.185,129.072 170.900 C 128.700 171.615,127.853 173.100,127.188 174.200 C 126.524 175.300,125.765 176.695,125.502 177.300 C 125.240 177.905,124.898 178.400,124.744 178.400 C 124.590 178.400,124.345 178.940,124.200 179.600 C 124.055 180.260,123.790 180.800,123.612 180.800 C 123.433 180.800,123.163 181.293,123.012 181.896 C 122.860 182.499,122.616 183.084,122.468 183.196 C 121.952 183.589,119.180 189.407,119.190 190.076 C 119.195 190.448,119.017 190.866,118.793 191.004 C 118.570 191.142,118.491 191.423,118.617 191.628 C 118.744 191.832,118.669 192.000,118.451 192.000 C 118.232 192.000,117.937 192.405,117.795 192.900 C 117.499 193.930,116.530 196.290,116.008 197.251 C 115.814 197.609,115.532 198.554,115.383 199.351 C 115.233 200.148,114.967 200.800,114.791 200.800 C 114.614 200.800,114.349 201.520,114.200 202.400 C 114.051 203.280,113.786 204.000,113.610 204.000 C 113.435 204.000,113.170 204.806,113.022 205.791 C 112.875 206.776,112.584 207.686,112.377 207.814 C 112.170 207.942,112.000 208.373,112.000 208.771 C 112.000 209.170,111.662 210.554,111.250 211.848 C 110.837 213.142,110.366 215.370,110.202 216.800 C 110.038 218.230,109.757 219.494,109.577 219.608 C 109.397 219.723,109.122 221.253,108.966 223.008 C 108.810 224.764,108.551 226.290,108.389 226.400 C 108.098 226.598,107.800 231.479,107.938 233.800 C 107.984 234.577,108.543 235.565,109.524 236.600 C 110.357 237.480,111.348 238.650,111.727 239.200 C 112.740 240.673,117.055 245.377,119.756 247.953 C 121.051 249.189,123.996 252.045,126.301 254.300 C 128.605 256.555,130.661 258.400,130.869 258.400 C 131.077 258.400,131.144 258.567,131.018 258.771 C 130.892 258.975,131.165 259.262,131.624 259.408 C 132.084 259.554,132.384 259.749,132.291 259.843 C 132.198 259.936,137.539 265.473,144.161 272.148 C 150.782 278.823,156.920 285.154,157.800 286.217 C 159.834 288.672,160.757 289.532,161.671 289.822 C 162.072 289.950,162.400 290.222,162.400 290.427 C 162.400 290.632,162.805 290.801,163.300 290.802 C 163.795 290.804,164.716 291.074,165.346 291.402 C 166.595 292.054,172.800 292.261,172.800 291.652 C 172.800 291.460,173.716 291.182,174.835 291.033 C 175.954 290.885,177.169 290.605,177.535 290.412 C 177.901 290.219,179.640 289.772,181.400 289.417 C 187.484 288.192,188.800 287.865,188.800 287.579 C 188.800 287.420,189.606 287.170,190.591 287.022 C 191.576 286.875,192.474 286.605,192.586 286.422 C 192.699 286.240,193.416 285.974,194.179 285.830 C 194.942 285.687,196.069 285.308,196.683 284.988 C 197.297 284.667,198.104 284.404,198.476 284.402 C 198.848 284.401,199.264 284.220,199.400 284.000 C 199.536 283.780,199.952 283.594,200.324 283.586 C 200.696 283.579,201.720 283.225,202.600 282.800 C 203.480 282.375,204.475 282.021,204.811 282.014 C 205.147 282.006,205.777 281.754,206.211 281.454 C 206.645 281.154,207.448 280.768,207.997 280.596 C 208.545 280.425,210.104 279.771,211.461 279.142 C 212.819 278.514,214.125 278.000,214.365 278.000 C 214.604 278.000,214.800 277.840,214.800 277.643 C 214.800 277.447,215.250 277.174,215.800 277.036 C 216.350 276.898,216.800 276.622,216.800 276.424 C 216.800 276.226,217.340 275.945,218.000 275.800 C 218.660 275.655,219.200 275.385,219.200 275.200 C 219.200 275.015,219.740 274.745,220.400 274.600 C 221.060 274.455,221.600 274.190,221.600 274.012 C 221.600 273.833,222.081 273.566,222.668 273.419 C 223.256 273.271,224.180 272.802,224.722 272.375 C 225.264 271.949,225.939 271.600,226.221 271.600 C 226.503 271.600,226.793 271.465,226.867 271.300 C 226.940 271.135,227.855 270.554,228.900 270.008 C 229.945 269.463,230.800 268.897,230.800 268.752 C 230.800 268.606,231.250 268.374,231.800 268.236 C 232.350 268.098,232.800 267.808,232.800 267.592 C 232.800 267.377,233.076 267.200,233.413 267.200 C 233.749 267.200,234.129 266.930,234.255 266.600 C 234.382 266.270,234.693 266.000,234.946 266.000 C 235.435 266.000,240.235 262.983,241.129 262.114 C 241.419 261.831,241.895 261.600,242.186 261.600 C 242.477 261.600,242.818 261.330,242.945 261.000 C 243.071 260.670,243.385 260.400,243.642 260.400 C 243.898 260.400,244.525 259.950,245.035 259.400 C 245.545 258.850,246.094 258.400,246.255 258.400 C 246.416 258.400,246.920 258.063,247.374 257.652 C 247.828 257.240,249.181 256.223,250.381 255.392 C 252.842 253.687,253.202 253.405,254.740 251.993 C 255.344 251.439,256.369 250.577,257.019 250.077 C 258.761 248.736,260.990 246.833,263.200 244.800 C 264.276 243.810,266.178 242.100,267.426 241.000 C 268.674 239.900,270.528 238.133,271.547 237.073 C 272.566 236.014,273.996 234.574,274.724 233.873 C 277.770 230.944,279.480 229.181,280.800 227.609 C 281.570 226.692,282.921 225.190,283.803 224.271 C 286.489 221.469,289.600 217.760,289.600 217.358 C 289.600 217.149,289.915 216.680,290.300 216.317 C 291.126 215.538,291.466 215.100,292.800 213.103 C 293.350 212.279,293.935 211.604,294.100 211.603 C 294.265 211.601,294.400 211.358,294.400 211.062 C 294.400 210.766,294.760 210.198,295.200 209.800 C 295.640 209.402,296.000 208.834,296.000 208.538 C 296.000 208.242,296.186 208.000,296.413 208.000 C 296.639 208.000,296.942 207.685,297.086 207.300 C 297.415 206.416,298.902 204.243,299.300 204.067 C 299.465 203.993,299.600 203.673,299.600 203.354 C 299.600 203.036,299.870 202.671,300.200 202.545 C 300.530 202.418,300.800 202.091,300.800 201.818 C 300.800 201.546,301.160 200.907,301.600 200.400 C 302.040 199.893,302.400 199.235,302.400 198.939 C 302.400 198.642,302.577 198.400,302.792 198.400 C 303.008 198.400,303.298 197.950,303.436 197.400 C 303.574 196.850,303.826 196.400,303.996 196.400 C 304.166 196.400,304.821 195.365,305.451 194.100 C 306.082 192.835,306.823 191.562,307.099 191.271 C 307.374 190.981,307.600 190.486,307.600 190.171 C 307.600 189.857,307.777 189.600,307.992 189.600 C 308.208 189.600,308.498 189.150,308.636 188.600 C 308.774 188.050,309.008 187.600,309.156 187.600 C 309.304 187.600,309.638 187.105,309.898 186.500 C 310.425 185.275,311.258 183.908,311.668 183.596 C 311.816 183.484,312.060 182.899,312.212 182.296 C 312.363 181.693,312.647 181.200,312.843 181.200 C 313.040 181.200,313.200 180.995,313.200 180.745 C 313.200 180.142,316.462 173.562,317.100 172.879 C 317.375 172.584,317.600 171.996,317.600 171.571 C 317.600 171.147,317.766 170.800,317.968 170.800 C 318.171 170.800,318.455 170.260,318.600 169.600 C 318.745 168.940,319.015 168.400,319.200 168.400 C 319.385 168.400,319.655 167.860,319.800 167.200 C 319.945 166.540,320.229 166.000,320.432 166.000 C 320.634 166.000,320.800 165.810,320.800 165.578 C 320.800 165.346,321.147 164.395,321.571 163.464 C 321.995 162.534,322.464 161.283,322.614 160.686 C 322.764 160.089,323.027 159.600,323.199 159.600 C 323.371 159.600,323.629 158.970,323.774 158.200 C 323.918 157.430,324.208 156.800,324.418 156.800 C 324.628 156.800,324.801 156.575,324.802 156.300 C 324.804 156.025,325.057 155.317,325.365 154.727 C 325.673 154.137,326.046 153.102,326.194 152.427 C 326.342 151.752,326.629 151.200,326.832 151.200 C 327.034 151.200,327.200 150.920,327.200 150.578 C 327.200 149.986,328.391 146.987,329.214 145.505 C 329.426 145.123,329.601 144.583,329.602 144.305 C 329.604 144.027,329.836 143.350,330.118 142.800 C 330.400 142.250,331.159 140.180,331.804 138.200 C 332.449 136.220,333.103 134.508,333.257 134.396 C 333.411 134.284,333.666 133.654,333.823 132.996 C 333.981 132.338,334.249 131.620,334.419 131.400 C 334.589 131.180,334.855 130.323,335.010 129.496 C 335.164 128.668,335.435 127.902,335.611 127.793 C 335.786 127.685,336.052 126.877,336.200 125.998 C 336.349 125.119,336.623 124.400,336.811 124.400 C 336.998 124.400,337.273 123.588,337.422 122.595 C 337.571 121.602,337.844 120.697,338.029 120.582 C 338.213 120.468,338.576 119.300,338.834 117.987 C 339.093 116.674,339.444 115.600,339.615 115.600 C 339.785 115.600,340.049 114.700,340.200 113.600 C 340.351 112.500,340.618 111.600,340.792 111.600 C 340.966 111.600,341.231 110.790,341.379 109.800 C 341.528 108.810,341.795 108.000,341.973 108.000 C 342.151 108.000,342.415 107.107,342.560 106.016 C 342.705 104.925,342.982 103.935,343.177 103.814 C 343.371 103.694,343.658 102.839,343.815 101.913 C 343.971 100.988,344.249 99.954,344.433 99.615 C 344.617 99.277,344.941 98.190,345.153 97.200 C 345.366 96.210,345.821 94.410,346.165 93.200 C 346.509 91.990,346.793 90.595,346.795 90.100 C 346.798 89.605,346.957 89.200,347.148 89.200 C 347.340 89.200,347.615 88.307,347.760 87.216 C 347.905 86.125,348.177 85.138,348.365 85.022 C 348.553 84.906,348.830 83.821,348.981 82.612 C 349.132 81.402,349.407 80.320,349.591 80.206 C 349.775 80.092,350.049 79.100,350.200 78.000 C 350.351 76.900,350.625 75.908,350.809 75.794 C 350.993 75.680,351.268 74.598,351.419 73.388 C 351.570 72.179,351.840 71.099,352.019 70.988 C 352.198 70.878,352.468 69.798,352.619 68.588 C 352.770 67.379,353.040 66.299,353.219 66.188 C 353.398 66.078,353.669 64.955,353.821 63.694 C 353.974 62.432,354.227 61.220,354.383 61.000 C 354.540 60.780,354.888 59.577,355.157 58.326 C 355.426 57.075,355.827 55.991,356.049 55.917 C 356.270 55.843,356.554 55.022,356.678 54.091 C 356.803 53.161,357.062 52.400,357.253 52.400 C 357.444 52.400,357.600 51.178,357.600 49.684 L 357.600 46.969 355.364 45.684 C 352.930 44.286,349.412 44.029,343.851 44.841 M355.439 46.506 C 355.601 46.668,355.536 47.745,355.294 48.900 C 355.051 50.055,354.667 51.900,354.438 53.000 C 354.210 54.100,353.851 55.630,353.640 56.400 C 353.430 57.170,352.990 58.970,352.663 60.400 C 351.213 66.746,347.413 82.218,346.180 86.800 C 345.617 88.890,344.824 91.860,344.417 93.400 C 343.791 95.768,341.404 104.037,339.395 110.800 C 336.433 120.773,330.554 137.511,326.681 147.000 C 323.106 155.757,322.012 158.304,319.206 164.400 C 310.547 183.212,298.108 204.201,288.624 216.000 C 274.813 233.184,256.353 250.045,238.200 262.057 C 234.177 264.719,227.646 268.800,227.409 268.800 C 227.339 268.800,226.138 269.493,224.741 270.340 C 217.621 274.655,199.274 282.944,191.800 285.222 C 191.140 285.423,190.240 285.757,189.800 285.963 C 186.834 287.356,181.730 288.368,173.947 289.107 C 165.782 289.883,164.220 289.555,160.266 286.231 C 158.910 285.091,157.124 283.650,156.298 283.030 C 155.472 282.410,154.137 280.979,153.331 279.851 C 152.525 278.723,142.161 268.062,130.301 256.160 L 108.736 234.520 109.576 228.771 C 114.732 193.493,133.927 159.259,167.199 126.000 C 184.201 109.004,209.653 92.215,236.000 80.615 C 243.252 77.422,256.082 72.263,261.400 70.401 C 271.321 66.927,274.558 65.837,282.000 63.465 C 296.517 58.837,317.905 53.025,340.400 47.595 C 342.050 47.197,344.120 46.688,345.000 46.465 C 346.783 46.013,354.978 46.045,355.439 46.506 M251.000 114.635 C 244.567 116.163,240.308 118.265,236.502 121.788 C 214.430 142.224,234.025 179.170,263.244 172.209 C 291.594 165.456,293.551 125.281,266.000 115.618 C 263.463 114.729,253.387 114.068,251.000 114.635 M261.365 115.944 C 261.482 116.133,262.349 116.394,263.290 116.523 C 265.649 116.846,271.600 119.402,271.600 120.091 C 271.600 120.261,271.812 120.400,272.072 120.400 C 272.475 120.400,278.622 126.493,279.803 128.064 C 280.838 129.440,281.520 130.730,281.991 132.200 C 282.274 133.080,282.673 134.013,282.878 134.272 C 283.084 134.532,283.356 135.752,283.483 136.984 C 283.610 138.216,283.869 139.319,284.057 139.435 C 284.506 139.713,284.505 146.400,284.056 146.400 C 283.867 146.400,283.611 147.377,283.488 148.572 C 283.257 150.811,281.684 155.697,281.119 155.933 C 280.944 156.007,280.800 156.309,280.800 156.605 C 280.800 156.901,280.575 157.381,280.300 157.671 C 280.025 157.962,279.568 158.650,279.285 159.200 C 279.001 159.750,278.059 161.010,277.191 162.000 C 276.323 162.990,275.610 163.935,275.606 164.100 C 275.603 164.265,275.414 164.400,275.187 164.400 C 274.959 164.400,274.269 164.895,273.653 165.500 C 272.404 166.727,268.727 168.800,267.800 168.800 C 267.470 168.800,267.200 168.957,267.200 169.149 C 267.200 169.341,266.440 169.619,265.512 169.768 C 264.584 169.916,263.690 170.254,263.527 170.519 C 263.098 171.213,250.236 171.196,249.540 170.500 C 249.265 170.225,248.761 169.994,248.420 169.987 C 248.079 169.981,246.900 169.532,245.800 168.991 C 244.700 168.450,243.575 168.006,243.300 168.004 C 243.025 168.002,242.800 167.820,242.800 167.600 C 242.800 167.380,242.567 167.200,242.281 167.200 C 241.148 167.200,233.497 159.965,233.011 158.434 C 232.866 157.978,232.534 157.376,232.274 157.096 C 231.584 156.356,230.469 153.986,230.159 152.600 C 230.011 151.940,229.690 151.147,229.445 150.838 C 228.849 150.084,228.858 137.504,229.455 136.748 C 229.693 136.446,230.001 135.570,230.139 134.800 C 230.458 133.023,233.087 127.810,234.400 126.354 C 234.950 125.743,235.606 125.009,235.858 124.722 C 236.739 123.717,241.109 120.400,241.552 120.400 C 241.799 120.400,242.000 120.254,242.000 120.075 C 242.000 119.721,245.305 118.190,246.972 117.771 C 247.541 117.628,248.098 117.365,248.208 117.187 C 248.318 117.009,249.579 116.737,251.010 116.584 C 252.441 116.431,253.709 116.147,253.829 115.953 C 254.110 115.498,261.085 115.490,261.365 115.944 M81.692 174.667 C 80.973 174.769,80.475 174.998,80.585 175.176 C 80.695 175.354,80.062 175.616,79.178 175.757 C 78.294 175.898,76.905 176.371,76.091 176.807 C 75.278 177.243,74.384 177.600,74.106 177.600 C 73.828 177.600,73.600 177.760,73.600 177.957 C 73.600 178.153,73.135 178.430,72.566 178.573 C 71.606 178.814,71.204 179.063,69.867 180.247 C 69.590 180.493,68.966 180.820,68.481 180.974 C 67.997 181.128,67.600 181.427,67.600 181.640 C 67.600 181.852,67.288 182.145,66.907 182.291 C 65.166 182.959,58.623 189.686,55.525 193.993 C 54.493 195.427,53.368 196.915,53.025 197.300 C 52.681 197.685,52.377 198.135,52.349 198.300 C 52.253 198.868,51.858 199.800,51.629 200.000 C 50.844 200.685,47.200 208.236,47.200 209.178 C 47.200 209.410,47.040 209.600,46.845 209.600 C 46.649 209.600,46.363 210.275,46.209 211.100 C 46.055 211.925,45.772 212.789,45.581 213.020 C 45.390 213.252,45.005 214.647,44.726 216.120 C 44.446 217.594,44.093 218.800,43.941 218.800 C 43.788 218.800,43.538 219.973,43.385 221.406 C 43.231 222.839,42.947 224.109,42.753 224.229 C 42.559 224.349,42.400 225.423,42.400 226.616 C 42.400 229.154,43.210 229.644,46.150 228.887 C 47.058 228.653,48.610 228.256,49.600 228.004 C 50.590 227.752,51.689 227.393,52.041 227.206 C 52.394 227.019,53.519 226.741,54.541 226.588 C 55.564 226.435,56.400 226.173,56.400 226.006 C 56.400 225.840,57.523 225.576,58.896 225.421 C 60.269 225.266,61.574 224.989,61.796 224.806 C 62.018 224.624,64.360 224.261,67.000 224.000 C 73.246 223.383,73.134 223.399,73.456 223.077 C 73.901 222.632,86.321 222.748,86.600 223.200 C 86.965 223.790,90.907 223.720,90.709 223.126 C 89.735 220.205,71.649 220.773,58.200 224.147 C 56.880 224.478,54.990 224.947,54.000 225.189 C 53.010 225.430,50.713 226.002,48.896 226.460 C 44.039 227.683,43.633 227.023,45.206 220.461 C 51.923 192.444,71.850 174.384,95.000 175.333 C 114.767 176.143,122.377 183.747,113.285 193.600 C 112.777 194.150,111.761 195.860,111.026 197.400 C 109.823 199.922,109.077 202.141,106.321 211.400 C 105.052 215.662,103.254 219.167,101.371 221.050 C 99.730 222.691,98.967 223.028,95.000 223.860 C 93.475 224.180,93.528 224.201,96.122 224.317 C 98.344 224.415,99.099 224.280,100.228 223.583 C 100.988 223.113,102.078 222.677,102.651 222.614 C 103.698 222.499,104.383 221.826,104.394 220.900 C 104.397 220.625,104.567 220.400,104.772 220.400 C 104.977 220.400,105.538 219.545,106.020 218.500 C 106.501 217.455,107.042 216.307,107.220 215.949 C 107.399 215.591,107.671 214.601,107.825 213.749 C 107.979 212.897,108.244 212.020,108.415 211.800 C 108.585 211.580,108.855 210.500,109.013 209.400 C 109.171 208.300,109.440 207.220,109.609 207.000 C 109.779 206.780,110.141 205.205,110.414 203.500 C 110.687 201.795,111.045 200.400,111.210 200.400 C 111.376 200.400,111.626 199.788,111.766 199.040 C 112.115 197.178,113.138 195.214,114.440 193.905 C 119.420 188.896,118.970 178.811,113.700 177.361 C 113.205 177.225,112.800 176.969,112.800 176.793 C 112.800 176.617,111.495 176.244,109.900 175.964 C 108.305 175.684,106.875 175.268,106.722 175.039 C 106.440 174.617,84.366 174.289,81.692 174.667 M91.200 223.600 C 91.200 223.820,91.650 224.000,92.200 224.000 C 92.750 224.000,93.200 223.820,93.200 223.600 C 93.200 223.380,92.750 223.200,92.200 223.200 C 91.650 223.200,91.200 223.380,91.200 223.600 M100.400 239.546 C 100.400 239.736,99.553 240.007,98.517 240.149 C 96.159 240.472,91.600 241.992,91.600 242.454 C 91.600 242.644,91.339 242.800,91.020 242.800 C 90.701 242.800,90.296 243.039,90.120 243.331 C 89.657 244.101,86.994 245.461,85.845 245.515 C 85.649 245.524,85.379 245.682,85.245 245.866 C 84.954 246.263,83.783 247.017,82.400 247.698 C 81.850 247.969,81.162 248.418,80.871 248.695 C 80.581 248.973,80.168 249.200,79.955 249.200 C 79.565 249.200,79.003 249.600,77.571 250.900 C 77.147 251.285,76.629 251.600,76.419 251.600 C 76.210 251.600,75.427 252.230,74.679 253.000 C 73.931 253.770,73.102 254.400,72.836 254.400 C 72.570 254.400,72.464 254.580,72.600 254.800 C 72.736 255.020,72.667 255.200,72.446 255.200 C 72.225 255.200,71.269 256.041,70.322 257.069 C 69.375 258.097,67.848 259.714,66.929 260.663 C 66.010 261.612,65.142 262.751,65.002 263.194 C 64.861 263.637,64.600 264.000,64.422 264.000 C 64.012 264.000,59.600 270.467,59.600 271.068 C 59.600 271.314,59.330 271.618,59.000 271.745 C 58.670 271.871,58.400 272.236,58.400 272.554 C 58.400 272.873,58.265 273.193,58.100 273.267 C 57.935 273.340,57.350 274.297,56.800 275.393 C 56.250 276.489,55.575 277.627,55.300 277.921 C 55.025 278.216,54.800 278.782,54.800 279.180 C 54.800 279.577,54.536 280.121,54.213 280.389 C 53.890 280.657,53.649 280.994,53.678 281.138 C 53.795 281.717,53.090 283.600,52.757 283.600 C 52.560 283.600,52.400 283.880,52.400 284.222 C 52.400 284.803,51.224 287.780,50.413 289.251 C 50.216 289.609,49.932 290.554,49.783 291.351 C 49.633 292.148,49.367 292.800,49.191 292.800 C 49.014 292.800,48.749 293.520,48.600 294.400 C 48.451 295.280,48.186 296.000,48.010 296.000 C 47.835 296.000,47.570 296.806,47.422 297.791 C 47.275 298.776,47.005 299.673,46.823 299.786 C 46.641 299.898,46.365 300.847,46.209 301.895 C 46.053 302.943,45.777 303.980,45.597 304.200 C 45.416 304.420,45.265 304.738,45.261 304.906 C 45.236 306.050,44.279 309.600,43.996 309.600 C 43.805 309.600,43.528 310.410,43.379 311.400 C 43.231 312.390,42.950 313.200,42.755 313.200 C 42.061 313.200,42.356 317.588,43.100 318.347 C 45.404 320.694,52.908 322.052,54.542 320.418 C 54.772 320.188,55.351 320.000,55.828 320.000 C 56.305 320.000,57.834 319.636,59.224 319.192 C 60.615 318.748,61.935 318.445,62.157 318.519 C 62.616 318.672,62.496 322.886,62.024 323.198 C 61.650 323.445,60.800 329.941,60.800 332.552 C 60.800 333.771,61.176 335.245,61.852 336.673 L 62.904 338.897 65.952 338.696 C 68.861 338.505,73.635 336.702,74.451 335.486 C 74.588 335.281,75.578 335.016,76.651 334.899 C 77.723 334.781,78.717 334.504,78.860 334.284 C 79.010 334.051,79.556 334.320,80.160 334.923 C 81.218 335.982,81.659 338.869,80.839 339.376 C 80.641 339.498,80.353 340.679,80.200 342.000 C 80.047 343.321,79.769 344.495,79.584 344.610 C 79.398 344.725,79.123 345.669,78.972 346.709 C 78.821 347.749,78.561 348.870,78.395 349.200 C 77.465 351.039,77.510 355.523,78.463 356.042 C 79.508 356.611,84.000 356.636,84.366 356.075 C 84.495 355.877,85.703 355.593,87.052 355.443 C 88.400 355.294,90.739 354.818,92.250 354.386 C 93.761 353.954,95.403 353.600,95.899 353.600 C 96.394 353.600,96.800 353.443,96.800 353.252 C 96.800 353.060,97.693 352.785,98.784 352.640 C 99.875 352.495,100.862 352.223,100.979 352.035 C 101.095 351.846,101.998 351.571,102.986 351.423 C 103.973 351.275,104.886 350.984,105.014 350.777 C 105.142 350.570,105.552 350.394,105.924 350.386 C 106.296 350.379,107.320 350.025,108.200 349.600 C 109.080 349.175,110.205 348.821,110.700 348.814 C 111.195 348.806,111.600 348.628,111.600 348.418 C 111.600 348.208,112.230 347.918,113.000 347.774 C 113.770 347.629,114.400 347.365,114.400 347.187 C 114.400 347.009,114.985 346.735,115.700 346.578 C 116.415 346.422,117.627 345.957,118.394 345.547 C 119.161 345.136,120.016 344.800,120.294 344.800 C 120.572 344.800,120.800 344.634,120.800 344.432 C 120.800 344.229,121.340 343.945,122.000 343.800 C 122.660 343.655,123.200 343.390,123.200 343.212 C 123.200 343.033,123.665 342.770,124.234 342.627 C 125.194 342.386,125.596 342.137,126.933 340.953 C 127.210 340.707,127.834 340.380,128.319 340.226 C 128.803 340.072,129.200 339.778,129.200 339.573 C 129.200 339.368,129.412 339.200,129.671 339.200 C 131.318 339.200,145.865 326.267,148.200 322.726 C 148.640 322.059,150.996 318.835,151.508 318.200 C 151.686 317.980,152.534 316.630,153.394 315.200 C 154.254 313.770,155.102 312.540,155.279 312.467 C 155.456 312.393,155.601 312.123,155.602 311.867 C 155.604 311.610,155.853 310.924,156.157 310.343 C 157.064 308.604,158.400 304.468,158.400 303.398 C 158.400 302.849,158.541 302.400,158.713 302.400 C 158.886 302.400,159.251 300.509,159.526 298.199 L 160.025 293.997 157.270 291.141 C 155.754 289.571,154.040 287.726,153.461 287.043 C 152.881 286.359,150.965 284.311,149.203 282.491 C 147.442 280.672,146.000 279.086,146.000 278.969 C 146.000 278.578,124.739 257.600,124.342 257.600 C 124.128 257.600,124.064 257.420,124.200 257.200 C 124.336 256.980,124.285 256.800,124.087 256.800 C 123.769 256.800,112.334 245.625,109.525 242.569 C 107.897 240.799,107.326 240.405,106.000 240.140 C 105.331 240.006,104.686 239.740,104.568 239.548 C 104.288 239.095,100.400 239.093,100.400 239.546 M107.340 243.723 C 109.545 244.883,116.400 250.484,116.400 251.125 C 116.400 251.288,116.930 252.002,117.578 252.711 C 118.225 253.420,120.294 255.871,122.175 258.158 C 124.056 260.445,127.058 263.640,128.845 265.258 C 130.633 266.876,132.750 268.917,133.548 269.792 C 136.309 272.821,141.059 277.416,145.622 281.475 C 158.870 293.257,160.113 297.344,154.113 309.400 C 146.751 324.192,136.176 334.342,119.400 342.716 C 113.996 345.414,108.850 347.399,100.200 350.121 C 93.221 352.318,80.826 354.986,80.255 354.415 C 79.841 354.001,80.311 350.821,81.619 345.200 C 84.675 332.066,83.056 330.335,72.097 335.017 C 62.799 338.988,61.379 337.410,63.797 325.791 C 65.886 315.751,65.473 315.191,57.563 317.328 C 44.753 320.789,42.886 319.209,46.540 308.000 C 47.078 306.350,47.916 303.560,48.402 301.800 C 49.776 296.823,51.269 292.451,53.315 287.405 C 60.850 268.831,75.067 252.553,89.600 245.862 C 98.556 241.738,102.633 241.246,107.340 243.723 M211.839 281.880 C 211.421 281.991,210.712 282.424,210.264 282.841 C 209.816 283.258,209.290 283.600,209.096 283.600 C 208.902 283.600,208.473 283.870,208.143 284.200 C 207.813 284.530,207.196 284.800,206.771 284.800 C 206.347 284.800,206.000 284.972,206.000 285.182 C 206.000 285.392,205.368 285.682,204.596 285.827 C 203.823 285.972,203.102 286.235,202.993 286.411 C 202.885 286.586,202.077 286.852,201.198 287.000 C 200.319 287.149,199.600 287.422,199.600 287.606 C 199.600 287.791,198.610 288.066,197.400 288.217 C 196.190 288.368,195.200 288.621,195.200 288.779 C 195.200 288.937,194.165 289.276,192.900 289.533 C 191.635 289.790,190.420 290.060,190.200 290.133 C 189.980 290.206,188.990 290.480,188.000 290.742 C 187.010 291.004,185.924 291.371,185.587 291.558 C 185.250 291.745,184.395 292.025,183.687 292.181 C 182.979 292.336,182.398 292.584,182.396 292.732 C 182.394 292.879,181.571 293.360,180.568 293.800 C 179.399 294.313,178.439 295.103,177.896 296.000 C 177.430 296.770,176.768 297.844,176.424 298.386 C 175.827 299.329,175.879 299.318,177.600 298.139 C 181.422 295.521,186.857 293.214,198.200 289.394 C 201.940 288.135,205.171 286.946,205.380 286.752 C 205.589 286.558,206.001 286.400,206.295 286.400 C 207.254 286.400,214.415 282.647,214.275 282.218 C 214.118 281.742,212.964 281.582,211.839 281.880 M217.209 284.091 C 223.108 289.989,225.639 306.163,222.328 316.800 C 216.155 336.633,197.258 351.560,174.751 354.382 C 170.591 354.904,170.559 354.863,171.944 350.765 C 176.217 338.123,178.244 323.409,177.261 312.167 C 176.738 306.189,175.631 299.600,175.149 299.600 C 174.197 299.600,174.375 307.082,175.342 307.685 C 175.984 308.086,175.965 329.127,175.323 329.524 C 175.075 329.677,174.743 331.287,174.584 333.101 C 174.426 334.916,174.154 336.400,173.980 336.400 C 173.806 336.400,173.538 337.573,173.385 339.006 C 173.231 340.439,172.957 341.703,172.776 341.815 C 172.595 341.927,172.323 342.869,172.173 343.909 C 172.022 344.949,171.765 345.980,171.602 346.200 C 171.438 346.420,171.179 347.297,171.025 348.149 C 170.871 349.001,170.588 349.991,170.396 350.349 C 169.336 352.324,168.679 355.651,169.238 356.210 C 170.031 357.002,179.310 355.745,183.723 354.247 C 184.771 353.891,185.982 353.600,186.414 353.600 C 186.846 353.600,187.200 353.420,187.200 353.200 C 187.200 352.980,187.515 352.794,187.900 352.786 C 188.285 352.779,189.320 352.425,190.200 352.000 C 191.080 351.575,192.025 351.221,192.300 351.214 C 192.575 351.206,192.800 351.034,192.800 350.832 C 192.800 350.629,193.375 350.337,194.077 350.183 C 194.780 350.029,195.603 349.654,195.906 349.351 C 196.209 349.048,196.714 348.800,197.029 348.800 C 197.343 348.800,197.600 348.634,197.600 348.432 C 197.600 348.229,198.140 347.945,198.800 347.800 C 199.460 347.655,200.000 347.381,200.000 347.190 C 200.000 346.857,201.202 346.097,203.100 345.231 C 203.595 345.005,204.000 344.635,204.000 344.410 C 204.000 344.184,204.195 344.000,204.433 344.000 C 205.350 344.000,215.198 335.001,215.202 334.159 C 215.203 333.961,215.743 333.225,216.402 332.522 C 217.061 331.819,217.600 331.063,217.600 330.842 C 217.600 330.621,217.825 330.296,218.100 330.120 C 218.375 329.944,218.879 329.260,219.221 328.600 C 219.563 327.940,220.215 326.680,220.671 325.800 C 221.475 324.246,222.046 323.007,223.387 319.905 C 223.753 319.058,224.139 316.674,224.277 314.405 C 224.411 312.202,224.674 310.400,224.860 310.400 C 225.348 310.400,225.289 299.702,224.800 299.400 C 224.580 299.264,224.399 298.218,224.397 297.076 C 224.393 294.549,223.671 289.897,223.238 289.609 C 223.065 289.494,222.801 288.900,222.651 288.289 C 222.076 285.939,220.068 283.299,218.692 283.085 C 217.981 282.974,216.950 282.748,216.400 282.583 C 215.555 282.329,215.681 282.563,217.209 284.091 " stroke="none" fill="#b4c2c1" fill-rule="evenodd"></path><path id="path2" d="M352.400 44.000 C 351.936 44.300,352.061 44.389,352.953 44.394 C 353.587 44.397,354.712 44.775,355.453 45.233 L 356.800 46.065 356.800 44.833 C 356.800 43.521,353.970 42.985,352.400 44.000 M344.400 47.888 C 342.299 48.128,332.465 50.535,326.800 52.196 C 321.259 53.820,312.255 56.148,309.840 56.580 C 308.982 56.733,305.562 57.662,302.240 58.644 C 298.918 59.626,294.940 60.797,293.400 61.247 C 288.416 62.704,271.907 68.001,268.000 69.398 C 256.528 73.499,249.383 76.183,246.200 77.589 C 245.760 77.783,242.970 78.957,240.000 80.198 C 208.034 93.549,181.293 111.789,160.832 134.200 C 131.434 166.399,115.341 196.753,110.784 228.600 L 110.040 233.800 113.743 237.600 C 115.779 239.690,122.401 246.440,128.457 252.600 C 152.906 277.468,159.548 284.270,160.830 285.751 C 163.834 289.222,168.263 289.673,177.421 287.440 C 180.489 286.692,184.080 285.860,185.400 285.593 C 206.278 281.358,237.771 263.433,262.576 241.667 C 266.061 238.608,280.424 223.981,283.850 220.000 C 297.729 203.875,316.321 171.314,325.417 147.200 C 325.707 146.430,326.294 144.900,326.722 143.800 C 336.142 119.551,344.080 92.680,352.008 58.200 C 352.716 55.120,353.537 51.616,353.832 50.414 C 354.250 48.712,354.262 48.160,353.884 47.920 C 353.398 47.611,347.014 47.589,344.400 47.888 M266.356 114.370 C 294.885 123.773,293.211 165.602,264.000 173.239 C 234.667 180.908,213.127 143.903,234.400 122.386 C 242.278 114.419,256.033 110.968,266.356 114.370 M85.200 176.996 C 66.980 181.103,51.950 197.973,46.236 220.732 C 44.991 225.689,45.293 226.582,47.937 225.760 C 66.961 219.838,82.754 218.379,94.687 221.443 C 99.616 222.709,103.128 218.678,106.399 208.000 C 110.342 195.130,111.316 192.777,114.366 188.747 C 117.206 184.995,116.756 182.384,112.910 180.306 C 107.679 177.478,91.590 175.556,85.200 176.996 M117.336 180.300 C 117.437 180.465,117.724 181.365,117.975 182.300 C 118.534 184.383,119.200 184.516,119.200 182.544 C 119.200 181.627,118.941 180.892,118.500 180.557 C 117.734 179.976,117.045 179.824,117.336 180.300 M100.848 223.679 C 99.554 224.507,99.533 224.558,100.365 224.865 C 101.430 225.259,102.800 224.493,102.800 223.504 C 102.800 222.597,102.496 222.624,100.848 223.679 M215.480 280.509 L 213.959 281.300 216.480 282.185 C 219.369 283.200,219.319 283.205,218.993 281.947 C 218.521 280.127,217.229 279.599,215.480 280.509 M209.086 286.207 C 203.862 288.739,200.564 290.059,190.400 293.688 C 178.979 297.765,176.671 298.901,176.975 300.298 C 180.019 314.309,178.819 333.221,173.969 347.676 C 171.926 353.765,171.923 353.712,174.300 353.399 C 190.218 351.301,205.894 342.079,215.353 329.249 C 225.376 315.652,225.072 289.948,214.827 284.829 L 213.400 284.116 209.086 286.207 M175.876 295.889 C 174.578 296.084,174.294 296.604,174.472 298.457 L 174.600 299.790 175.534 298.795 C 176.591 297.668,177.781 295.569,177.310 295.660 C 177.140 295.693,176.494 295.796,175.876 295.889 " stroke="none" fill="#040404" fill-rule="evenodd"></path><path id="path3" d="M350.275 46.659 C 350.132 46.801,348.347 47.061,346.308 47.236 C 342.978 47.522,340.201 48.052,336.000 49.203 C 335.230 49.414,331.334 50.496,327.342 51.607 C 323.350 52.719,319.165 53.737,318.042 53.870 C 316.919 54.003,316.000 54.249,316.000 54.418 C 316.000 54.587,315.062 54.854,313.916 55.012 C 312.770 55.169,311.555 55.449,311.216 55.633 C 310.877 55.817,309.790 56.146,308.800 56.363 C 306.808 56.801,303.655 57.638,300.600 58.541 C 292.183 61.026,288.379 62.133,287.000 62.496 C 286.120 62.727,285.220 63.050,285.000 63.212 C 284.780 63.375,283.970 63.639,283.200 63.800 C 282.430 63.961,281.620 64.228,281.400 64.394 C 281.180 64.560,280.303 64.821,279.451 64.975 C 278.599 65.129,277.609 65.416,277.251 65.613 C 276.893 65.809,274.170 66.774,271.200 67.755 C 263.186 70.404,259.881 71.566,259.105 72.006 C 258.723 72.223,258.211 72.400,257.966 72.400 C 257.721 72.400,256.954 72.660,256.260 72.978 C 255.567 73.296,253.290 74.208,251.200 75.004 C 249.110 75.801,247.040 76.612,246.600 76.808 C 246.160 77.004,244.630 77.642,243.200 78.225 C 241.770 78.809,239.430 79.816,238.000 80.464 C 236.570 81.112,235.040 81.795,234.600 81.981 C 224.878 86.092,207.395 95.655,197.604 102.218 C 181.130 113.260,173.585 119.746,159.453 135.009 C 141.442 154.462,126.374 177.356,118.784 196.800 C 118.312 198.010,117.764 199.410,117.566 199.911 C 116.903 201.593,114.408 209.184,114.020 210.700 C 113.809 211.525,113.343 213.280,112.985 214.600 C 111.930 218.493,111.222 222.237,110.379 228.386 L 109.586 234.171 113.340 237.986 C 115.405 240.084,124.752 249.540,134.110 259.000 C 143.469 268.460,151.844 277.100,152.723 278.200 C 153.601 279.300,156.183 281.907,158.460 283.994 C 165.976 290.881,161.897 286.613,128.457 252.600 C 122.401 246.440,115.779 239.690,113.743 237.600 L 110.040 233.800 110.784 228.600 C 115.341 196.753,131.434 166.399,160.832 134.200 C 181.293 111.789,208.034 93.549,240.000 80.198 C 242.970 78.957,245.760 77.783,246.200 77.589 C 249.383 76.183,256.528 73.499,268.000 69.398 C 271.907 68.001,288.416 62.704,293.400 61.247 C 294.940 60.797,298.918 59.626,302.240 58.644 C 305.562 57.662,308.982 56.733,309.840 56.580 C 312.253 56.148,321.257 53.821,326.800 52.196 C 337.478 49.067,342.684 47.988,348.200 47.761 C 354.485 47.503,354.541 47.529,353.832 50.414 C 353.537 51.616,352.716 55.120,352.008 58.200 C 344.080 92.680,336.142 119.551,326.722 143.800 C 326.294 144.900,325.707 146.430,325.417 147.200 C 316.321 171.314,297.729 203.875,283.850 220.000 C 280.424 223.981,266.061 238.608,262.576 241.667 C 236.658 264.410,208.124 280.406,183.414 286.044 C 175.359 287.881,171.799 288.849,174.097 288.577 C 182.120 287.625,184.211 287.185,189.800 285.268 C 221.039 274.556,247.407 257.865,272.018 233.227 C 280.512 224.723,287.234 217.098,291.660 210.943 C 296.553 204.138,303.245 193.705,305.991 188.600 C 306.938 186.840,307.843 185.220,308.003 185.000 C 309.076 183.525,316.416 169.117,319.108 163.200 C 323.940 152.582,330.014 137.286,332.848 128.600 C 333.494 126.620,334.175 124.724,334.360 124.387 C 334.546 124.050,334.834 123.156,335.000 122.400 C 335.166 121.644,335.445 120.750,335.619 120.413 C 335.948 119.779,337.697 114.296,339.133 109.400 C 339.585 107.860,340.496 104.800,341.158 102.600 C 341.820 100.400,342.538 97.880,342.753 97.000 C 342.968 96.120,343.441 94.410,343.803 93.200 C 344.165 91.990,344.706 90.010,345.005 88.800 C 345.303 87.590,346.113 84.440,346.804 81.800 C 347.494 79.160,348.423 75.470,348.867 73.600 C 349.312 71.730,349.937 69.120,350.257 67.800 C 350.577 66.480,351.088 64.320,351.393 63.000 C 351.698 61.680,352.231 59.430,352.579 58.000 C 353.237 55.290,354.243 50.704,354.653 48.543 C 354.887 47.304,354.860 47.279,352.826 46.843 C 350.390 46.321,350.598 46.336,350.275 46.659 M250.200 113.793 C 224.120 119.544,217.024 151.844,238.316 167.888 C 257.707 182.500,283.578 170.968,286.820 146.270 C 288.868 130.666,276.591 114.892,261.200 113.351 C 257.844 113.015,258.297 113.532,261.793 114.027 C 268.726 115.009,274.511 118.227,279.153 123.682 C 281.348 126.262,284.800 132.337,284.800 133.621 C 284.800 133.961,284.981 134.421,285.202 134.642 C 286.377 135.817,286.394 150.324,285.222 151.788 C 285.041 152.014,284.767 152.788,284.613 153.507 C 283.280 159.741,274.751 169.161,268.777 170.998 C 268.240 171.163,267.613 171.446,267.384 171.628 C 266.951 171.972,264.807 172.560,261.400 173.270 C 253.187 174.981,243.086 171.980,236.569 165.894 C 233.976 163.472,229.205 157.169,229.198 156.155 C 229.196 155.960,228.940 155.310,228.627 154.712 C 220.480 139.094,232.547 117.221,250.996 114.167 C 252.758 113.876,254.650 113.563,255.200 113.473 C 255.750 113.383,255.390 113.299,254.400 113.286 C 253.410 113.274,251.520 113.502,250.200 113.793 M85.800 176.230 C 66.444 180.836,51.440 197.358,45.871 220.200 C 44.309 226.610,44.481 227.135,47.841 226.196 C 49.138 225.834,52.000 225.081,54.200 224.525 C 56.400 223.968,58.560 223.360,59.000 223.174 C 59.839 222.819,63.080 222.227,67.800 221.566 C 69.340 221.351,71.770 220.980,73.200 220.743 C 77.922 219.958,89.177 220.819,90.697 222.081 C 91.980 223.145,98.051 222.760,99.691 221.510 C 102.371 219.466,108.228 207.695,107.117 206.584 C 107.026 206.493,106.536 207.719,106.027 209.309 C 103.005 218.759,99.373 222.646,94.687 221.443 C 82.754 218.379,66.961 219.838,47.937 225.760 C 45.293 226.582,44.991 225.689,46.236 220.732 C 51.708 198.938,66.742 181.477,83.600 177.337 C 92.734 175.094,111.197 177.787,115.106 181.934 C 115.962 182.841,116.042 182.868,115.648 182.113 C 114.753 180.397,107.448 177.200,104.424 177.200 C 103.839 177.200,103.152 176.992,102.898 176.738 C 102.432 176.272,87.489 175.828,85.800 176.230 M117.256 180.800 C 117.256 181.130,117.411 181.760,117.600 182.200 C 117.817 182.704,117.944 182.778,117.944 182.400 C 117.944 182.070,117.789 181.440,117.600 181.000 C 117.383 180.496,117.256 180.422,117.256 180.800 M116.151 185.546 C 116.025 186.176,115.260 187.571,114.451 188.646 C 111.560 192.486,108.358 199.869,107.444 204.800 C 107.302 205.570,107.804 204.374,108.562 202.142 C 110.353 196.862,111.653 194.073,112.992 192.638 C 114.962 190.527,117.652 184.400,116.608 184.400 C 116.483 184.400,116.277 184.916,116.151 185.546 M212.000 284.433 C 210.570 285.111,208.590 286.024,207.600 286.462 C 206.610 286.900,205.233 287.515,204.540 287.829 C 203.846 288.143,203.130 288.400,202.947 288.400 C 202.588 288.400,198.612 289.888,197.549 290.420 C 197.191 290.599,196.246 290.868,195.449 291.017 C 194.652 291.167,194.000 291.429,194.000 291.600 C 194.000 291.771,193.378 292.028,192.617 292.170 C 191.856 292.313,190.731 292.692,190.117 293.012 C 189.503 293.333,188.685 293.596,188.300 293.598 C 187.915 293.599,187.600 293.766,187.600 293.968 C 187.600 294.171,187.021 294.464,186.313 294.619 C 185.605 294.775,184.750 295.044,184.413 295.218 C 184.076 295.392,182.405 296.170,180.700 296.947 C 178.995 297.725,177.600 298.466,177.600 298.594 C 177.600 298.723,177.915 298.663,178.300 298.462 C 180.287 297.422,183.254 296.249,189.600 293.993 C 199.485 290.479,203.115 289.033,208.639 286.411 C 214.077 283.829,214.244 283.832,217.134 286.547 C 225.283 294.203,224.330 317.072,215.353 329.249 C 205.894 342.079,190.218 351.301,174.300 353.399 C 171.923 353.712,171.926 353.765,173.969 347.676 C 178.735 333.474,180.346 305.766,176.741 300.000 C 176.351 299.375,176.386 299.855,177.143 305.400 C 179.241 320.780,177.924 334.795,173.026 349.200 C 171.054 354.997,172.206 355.215,185.000 351.467 C 201.501 346.633,217.008 332.623,220.934 319.000 C 221.315 317.680,221.793 316.060,221.997 315.400 C 224.950 305.846,222.418 290.707,216.862 284.702 C 215.185 282.891,215.247 282.894,212.000 284.433 M167.507 289.090 C 168.226 289.179,169.306 289.177,169.907 289.086 C 170.508 288.995,169.920 288.922,168.600 288.924 C 167.280 288.926,166.788 289.001,167.507 289.090 " stroke="none" fill="#545555" fill-rule="evenodd"></path><path id="path4" d="M345.400 46.460 C 344.520 46.677,341.640 47.382,339.000 48.028 C 336.360 48.674,332.130 49.756,329.600 50.433 C 324.076 51.913,320.882 52.704,318.200 53.258 C 304.760 56.033,270.721 66.776,250.000 74.782 C 192.291 97.080,147.526 136.101,123.520 185.034 C 120.373 191.450,120.075 192.119,117.669 198.200 C 113.506 208.723,109.200 226.399,109.200 232.968 L 109.200 234.735 130.234 255.936 C 141.803 267.596,151.658 277.663,152.134 278.306 C 154.753 281.840,162.781 288.836,164.159 288.783 C 164.402 288.774,164.041 288.459,163.357 288.083 C 161.669 287.155,154.686 280.668,152.720 278.200 C 151.843 277.100,143.469 268.460,134.110 259.000 C 124.752 249.540,115.405 240.084,113.340 237.986 L 109.586 234.171 110.379 228.386 C 111.222 222.237,111.930 218.493,112.985 214.600 C 113.343 213.280,113.809 211.525,114.020 210.700 C 114.408 209.184,116.903 201.593,117.566 199.911 C 117.764 199.410,118.312 198.010,118.784 196.800 C 126.374 177.356,141.442 154.462,159.453 135.009 C 173.585 119.746,181.130 113.260,197.604 102.218 C 207.395 95.655,224.878 86.092,234.600 81.981 C 235.040 81.795,236.570 81.112,238.000 80.464 C 239.430 79.816,241.770 78.809,243.200 78.225 C 244.630 77.642,246.160 77.004,246.600 76.808 C 247.040 76.612,249.110 75.801,251.200 75.004 C 253.290 74.208,255.567 73.296,256.260 72.978 C 256.954 72.660,257.721 72.400,257.966 72.400 C 258.211 72.400,258.723 72.223,259.105 72.006 C 259.881 71.566,263.186 70.404,271.200 67.755 C 274.170 66.774,276.893 65.809,277.251 65.613 C 277.609 65.416,278.599 65.129,279.451 64.975 C 280.303 64.821,281.180 64.560,281.400 64.394 C 281.620 64.228,282.430 63.961,283.200 63.800 C 283.970 63.639,284.780 63.375,285.000 63.212 C 285.220 63.050,286.120 62.727,287.000 62.496 C 288.379 62.133,292.183 61.026,300.600 58.541 C 303.655 57.638,306.808 56.801,308.800 56.363 C 309.790 56.146,310.877 55.817,311.216 55.633 C 311.555 55.449,312.770 55.169,313.916 55.012 C 315.062 54.854,316.000 54.587,316.000 54.418 C 316.000 54.249,316.919 54.003,318.042 53.870 C 319.165 53.737,323.350 52.719,327.342 51.607 C 331.334 50.496,335.230 49.414,336.000 49.203 C 340.186 48.056,342.970 47.522,346.233 47.242 C 348.231 47.070,350.061 46.810,350.299 46.662 C 351.622 45.845,354.896 47.260,354.653 48.543 C 354.243 50.704,353.237 55.290,352.579 58.000 C 352.231 59.430,351.698 61.680,351.393 63.000 C 351.088 64.320,350.577 66.480,350.257 67.800 C 349.937 69.120,349.312 71.730,348.867 73.600 C 348.423 75.470,347.494 79.160,346.804 81.800 C 346.113 84.440,345.303 87.590,345.005 88.800 C 344.706 90.010,344.165 91.990,343.803 93.200 C 343.441 94.410,342.968 96.120,342.753 97.000 C 342.538 97.880,341.820 100.400,341.158 102.600 C 340.496 104.800,339.585 107.860,339.133 109.400 C 337.697 114.296,335.948 119.779,335.619 120.413 C 335.445 120.750,335.166 121.644,335.000 122.400 C 334.834 123.156,334.546 124.050,334.360 124.387 C 334.175 124.724,333.494 126.620,332.848 128.600 C 330.014 137.286,323.940 152.582,319.108 163.200 C 316.416 169.117,309.076 183.525,308.003 185.000 C 307.843 185.220,306.938 186.840,305.991 188.600 C 304.210 191.912,299.792 199.032,296.063 204.600 C 276.383 233.987,242.336 262.621,209.354 277.522 C 200.893 281.344,187.653 286.292,184.000 286.996 C 183.230 287.144,182.060 287.424,181.400 287.618 C 179.219 288.257,168.420 289.305,166.694 289.045 C 165.504 288.865,165.178 288.907,165.600 289.188 C 167.321 290.334,180.978 288.705,187.800 286.541 C 227.085 274.077,269.321 243.452,292.736 210.454 C 316.489 176.980,336.575 128.833,348.994 75.600 C 349.277 74.390,350.454 69.440,351.610 64.600 C 353.518 56.616,353.998 54.518,355.223 48.822 C 355.482 47.618,355.469 46.909,355.183 46.622 C 354.633 46.071,347.461 45.952,345.400 46.460 M255.200 113.457 C 254.650 113.556,252.758 113.876,250.996 114.167 C 234.045 116.973,222.978 133.908,227.245 150.511 C 227.710 152.320,228.228 153.980,228.396 154.200 C 228.565 154.420,228.835 155.050,228.997 155.600 C 230.197 159.664,237.467 167.580,242.365 170.154 C 248.098 173.167,255.824 174.432,261.400 173.270 C 264.807 172.560,266.951 171.972,267.384 171.628 C 267.613 171.446,268.240 171.163,268.777 170.998 C 274.751 169.161,283.280 159.741,284.613 153.507 C 284.767 152.788,285.041 152.014,285.222 151.788 C 286.394 150.324,286.377 135.817,285.202 134.642 C 284.981 134.421,284.800 133.961,284.800 133.621 C 284.800 131.055,278.744 122.411,274.935 119.542 C 269.581 115.508,260.078 112.578,255.200 113.457 M264.543 115.185 C 286.423 120.781,293.088 149.915,276.089 165.653 C 267.071 174.002,249.624 175.506,240.600 168.712 C 212.910 147.864,231.327 106.690,264.543 115.185 M86.498 175.658 C 68.779 178.199,52.544 195.030,46.039 217.600 C 43.642 225.916,43.894 227.641,47.375 226.764 C 48.396 226.508,49.152 226.219,49.056 226.122 C 48.959 226.026,48.117 226.153,47.183 226.405 C 44.561 227.111,44.387 226.289,45.871 220.200 C 51.204 198.326,65.088 182.334,83.600 176.744 C 86.051 176.003,102.128 175.968,102.861 176.701 C 103.136 176.976,103.839 177.200,104.424 177.200 C 105.858 177.200,111.334 178.964,113.058 179.981 C 113.823 180.432,114.322 180.598,114.168 180.349 C 112.173 177.120,95.733 174.333,86.498 175.658 M115.924 182.600 C 116.126 183.040,116.392 183.670,116.514 184.000 C 116.707 184.518,116.741 184.515,116.768 183.976 C 116.786 183.634,116.520 183.004,116.178 182.576 C 115.566 181.812,115.562 181.813,115.924 182.600 M116.667 185.467 C 116.520 185.613,116.400 186.059,116.400 186.458 C 116.400 187.445,114.322 191.213,112.992 192.638 C 111.195 194.563,110.049 197.449,106.235 209.650 C 104.250 215.998,102.312 219.512,99.691 221.510 C 97.926 222.855,92.357 223.067,90.200 221.871 C 89.540 221.504,88.460 221.210,87.800 221.216 C 86.242 221.229,89.916 222.642,93.160 223.277 C 97.192 224.067,103.200 221.228,103.200 218.534 C 103.200 218.240,103.380 218.000,103.600 218.000 C 103.820 218.000,104.001 217.775,104.002 217.500 C 104.004 217.225,104.275 216.482,104.605 215.849 C 104.936 215.216,106.299 211.166,107.635 206.849 C 110.333 198.129,111.074 196.432,113.689 192.977 C 115.887 190.075,116.617 188.655,116.918 186.700 C 117.156 185.158,117.126 185.008,116.667 185.467 M72.600 220.826 C 71.720 221.008,69.650 221.335,68.000 221.554 C 63.426 222.160,59.887 222.798,59.000 223.177 C 58.560 223.365,56.490 223.920,54.400 224.411 C 50.669 225.287,48.669 225.992,50.000 225.962 C 50.927 225.941,54.951 225.029,55.400 224.737 C 55.620 224.595,56.700 224.348,57.800 224.188 C 58.900 224.029,59.980 223.764,60.200 223.599 C 60.420 223.434,61.677 223.168,62.994 223.009 C 64.310 222.849,66.560 222.456,67.994 222.133 C 69.507 221.793,73.955 221.446,78.600 221.305 C 83.013 221.171,86.152 220.931,85.600 220.771 C 84.241 220.375,74.585 220.417,72.600 220.826 M214.267 281.989 C 215.121 282.913,208.199 286.080,197.200 289.797 C 186.895 293.279,180.211 296.105,178.600 297.661 C 178.258 297.991,182.584 296.176,184.413 295.222 C 184.750 295.046,185.605 294.775,186.313 294.619 C 187.021 294.464,187.600 294.171,187.600 293.968 C 187.600 293.766,187.915 293.599,188.300 293.598 C 188.685 293.596,189.503 293.333,190.117 293.012 C 190.731 292.692,191.856 292.313,192.617 292.170 C 193.378 292.028,194.000 291.771,194.000 291.600 C 194.000 291.429,194.652 291.167,195.449 291.017 C 196.246 290.868,197.191 290.599,197.549 290.420 C 198.612 289.888,202.588 288.400,202.947 288.400 C 203.318 288.400,204.507 287.881,209.952 285.340 C 215.845 282.590,216.335 282.764,219.699 288.802 C 223.069 294.852,224.222 308.201,221.997 315.400 C 221.793 316.060,221.315 317.680,220.934 319.000 C 217.008 332.623,201.501 346.633,185.000 351.467 C 172.206 355.215,171.054 354.997,173.026 349.200 C 178.370 333.484,179.362 319.922,176.543 301.150 C 176.368 299.980,176.507 299.527,177.263 298.801 C 178.197 297.904,178.197 297.903,177.300 298.365 C 176.805 298.620,176.400 298.710,176.400 298.565 C 176.400 298.420,176.132 298.524,175.804 298.796 C 175.477 299.068,175.335 299.494,175.489 299.744 C 175.643 299.993,175.895 301.007,176.050 301.998 C 176.205 302.989,176.522 304.970,176.755 306.400 C 178.807 318.989,177.057 335.117,171.886 351.277 C 170.718 354.926,170.588 354.825,175.600 354.159 C 192.970 351.852,210.576 340.367,218.473 326.190 C 225.783 313.068,225.339 292.820,217.560 284.595 C 216.485 283.458,215.724 282.409,215.869 282.264 C 216.014 282.119,215.938 282.000,215.699 282.000 C 215.461 282.000,214.936 281.884,214.533 281.741 C 213.957 281.538,213.900 281.590,214.267 281.989 " stroke="none" fill="#566c6c" fill-rule="evenodd"></path></g></svg>